/* XPM */
static char *result[] = {
/* columns rows colors chars-per-pixel */
"140 33 2 1 ",
"  c #ED1C24",
". c None",
/* pixels */
"..............................................                     .............                          ................          ........",
"..............................................                       ...........                          ..............              ......",
"..............................................                        ..........                          .............                .....",
"..............................................                         .........                          ............                  ....",
"..............................................    ...............       ........    .................................        ....        ...",
"..............................................    .................     ........    ................................       ........       ..",
"..............................................    ..................     .......    ...............................       ..........       .",
"..............................................    ..................     .......    ...............................      ............      .",
"..............................................    ...................    .......    ..............................      ..............      ",
"..............................................    ...................    .......    ..............................     .....................",
"..............................................    ..................     .......    ..............................     .....................",
"..............................................    ..................     .......    .............................     ......................",
"..............................................    .................     ........    .............................     ......................",
"..............................................    ...............       ........    .............................     ......................",
"..............................................                         .........                        .........    .......................",
"..............................................                        ..........                        .........    .......................",
"..............................................                       ...........                        .........    .......................",
"..............................................                     .............                        .........    .......................",
"..............................................    ...........    ...............    .............................    .......................",
"..............................................    ...........     ..............    .............................    .......................",
"..............................................    ............    ..............    .............................     ......................",
"..............................................    ............     .............    .............................     ......................",
"..............................................    .............     ............    .............................     ......................",
"..............................................    ..............     ...........    ..............................     ................     ",
"..............................................    ...............    ...........    ..............................     ................     ",
"..............................................    ...............     ..........    ..............................      ..............      ",
"..............................................    ................     .........    ...............................      ............      .",
"..............................................    .................    .........    ...............................       ..........       .",
"..............................................    .................     ........    ................................       ........       ..",
"..............................................    ..................     .......                          ...........        ....        ...",
"..............................................    ...................     ......                          ............                  ....",
"..............................................    ....................    ......                          .............                .....",
"..............................................    ....................     .....                          ...............            ......."
};
