/* XPM */
static char *result[] = {
/* columns rows colors chars-per-pixel */
"119 53 3 1 ",
"  c #464646",
". c white",
"X c None",
/* pixels */
"XXXXXXXXXX.............................................................................................................",
"XXXXXXXXXX.............................................................................................................",
"XXXXXXXXXX.............................................................................................................",
"XXXXXXXXXX.............................................................................................................",
"XXXXXXXXXX....XXXXXXXXXXXXXXXXXXXXXXXXXXXXXXXXXXXXXXXXXXXXXXXXXXXXXXXXXXXXXXXXXXXXXXXXXXXXXXXXXXXXXXXXXXXXXXXXXXXXX....",
"XXXXXXXXXX....XXXXXXXXXXXXXXXXXXXXXXXXXXXXXXXXXXXXXXXXXXXXXXXXXXXXXXXXXXXXXXXXXXXXXXXXXXXXXXXXXXXXXXXXXXXXXXXXXXXXX....",
"XXXXXXXXXX....XXXXXXXXXXXXXXXXXXXXXXXXXXXXXXXXXXXXXXXXXXXXXXXXXXXXXXXXXXXXXXXXXXXXXXXXXXXXXXXXXXXXXXXXXXXXXXXXXXXXX....",
"XXXXXXXXXX....XXXXXXXXXXXXXXXXXXXXXXXXXXXXXXXXXXXXXXXXXXXXXXXXXXXXXXXXXXXXXXXXXXXXXXXXXXXXXXXXXXXXXXXXXXXXXXXXXXXXX....",
"XXXXXXXXXX....XXXXX               XXXX               XXXX               XXXX               XXXX               XXXXX....",
"XXXXXXXXXX....XXXXX               XXXX               XXXX               XXXX               XXXX               XXXXX....",
"XXXXXXXXXX....XXXXX               XXXX               XXXX               XXXX               XXXX               XXXXX....",
"XXXXXXXXXX....XXXXX               XXXX               XXXX               XXXX               XXXX               XXXXX....",
"XXXXXXXXXX....XXXXX               XXXX               XXXX               XXXX               XXXX               XXXXX....",
"..............XXXXX               XXXX               XXXX               XXXX               XXXX               XXXXX....",
"..............XXXXX               XXXX               XXXX               XXXX               XXXX               XXXXX....",
"..............XXXXX               XXXX               XXXX               XXXX               XXXX               XXXXX....",
"..............XXXXX               XXXX               XXXX               XXXX               XXXX               XXXXX....",
"..............XXXXX               XXXX               XXXX               XXXX               XXXX               XXXXX....",
"..............XXXXX               XXXX               XXXX               XXXX               XXXX               XXXXX....",
"..............XXXXX               XXXX               XXXX               XXXX               XXXX               XXXXX....",
"..............XXXXX               XXXX               XXXX               XXXX               XXXX               XXXXX....",
"..............XXXXX               XXXX               XXXX               XXXX               XXXX               XXXXX....",
"..............XXXXX               XXXX               XXXX               XXXX               XXXX               XXXXX....",
"..............XXXXX               XXXX               XXXX               XXXX               XXXX               XXXXX....",
"..............XXXXX               XXXX               XXXX               XXXX               XXXX               XXXXX....",
"..............XXXXX               XXXX               XXXX               XXXX               XXXX               XXXXX....",
"..............XXXXX               XXXX               XXXX               XXXX               XXXX               XXXXX....",
"..............XXXXX               XXXX               XXXX               XXXX               XXXX               XXXXX....",
"..............XXXXX               XXXX               XXXX               XXXX               XXXX               XXXXX....",
"..............XXXXX               XXXX               XXXX               XXXX               XXXX               XXXXX....",
"..............XXXXX               XXXX               XXXX               XXXX               XXXX               XXXXX....",
"..............XXXXX               XXXX               XXXX               XXXX               XXXX               XXXXX....",
"..............XXXXX               XXXX               XXXX               XXXX               XXXX               XXXXX....",
"..............XXXXX               XXXX               XXXX               XXXX               XXXX               XXXXX....",
"..............XXXXX               XXXX               XXXX               XXXX               XXXX               XXXXX....",
"..............XXXXX               XXXX               XXXX               XXXX               XXXX               XXXXX....",
"..............XXXXX               XXXX               XXXX               XXXX               XXXX               XXXXX....",
"..............XXXXX               XXXX               XXXX               XXXX               XXXX               XXXXX....",
"..............XXXXX               XXXX               XXXX               XXXX               XXXX               XXXXX....",
"..............XXXXX               XXXX               XXXX               XXXX               XXXX               XXXXX....",
"XXXXXXXXXX....XXXXX               XXXX               XXXX               XXXX               XXXX               XXXXX....",
"XXXXXXXXXX....XXXXX               XXXX               XXXX               XXXX               XXXX               XXXXX....",
"XXXXXXXXXX....XXXXX               XXXX               XXXX               XXXX               XXXX               XXXXX....",
"XXXXXXXXXX....XXXXX               XXXX               XXXX               XXXX               XXXX               XXXXX....",
"XXXXXXXXXX....XXXXX               XXXX               XXXX               XXXX               XXXX               XXXXX....",
"XXXXXXXXXX....XXXXXXXXXXXXXXXXXXXXXXXXXXXXXXXXXXXXXXXXXXXXXXXXXXXXXXXXXXXXXXXXXXXXXXXXXXXXXXXXXXXXXXXXXXXXXXXXXXXXX....",
"XXXXXXXXXX....XXXXXXXXXXXXXXXXXXXXXXXXXXXXXXXXXXXXXXXXXXXXXXXXXXXXXXXXXXXXXXXXXXXXXXXXXXXXXXXXXXXXXXXXXXXXXXXXXXXXX....",
"XXXXXXXXXX....XXXXXXXXXXXXXXXXXXXXXXXXXXXXXXXXXXXXXXXXXXXXXXXXXXXXXXXXXXXXXXXXXXXXXXXXXXXXXXXXXXXXXXXXXXXXXXXXXXXXX....",
"XXXXXXXXXX....XXXXXXXXXXXXXXXXXXXXXXXXXXXXXXXXXXXXXXXXXXXXXXXXXXXXXXXXXXXXXXXXXXXXXXXXXXXXXXXXXXXXXXXXXXXXXXXXXXXXX....",
"XXXXXXXXXX.............................................................................................................",
"XXXXXXXXXX.............................................................................................................",
"XXXXXXXXXX.............................................................................................................",
"XXXXXXXXXX............................................................................................................."
};
