/* XPM */
static char *result[] = {
/* columns rows colors chars-per-pixel */
"119 53 2 1 ",
"  c white",
". c None",
/* pixels */
"..........                                                                                                             ",
"..........                                                                                                             ",
"..........                                                                                                             ",
"..........                                                                                                             ",
"..........    .....................................................................................................    ",
"..........    .....................................................................................................    ",
"..........    .....................................................................................................    ",
"..........    .....................................................................................................    ",
"..........    .....               ....               ....               ....               ....               .....    ",
"..........    .....               ....               ....               ....               ....               .....    ",
"..........    .....               ....               ....               ....               ....               .....    ",
"..........    .....               ....               ....               ....               ....               .....    ",
"..........    .....               ....               ....               ....               ....               .....    ",
"              .....               ....               ....               ....               ....               .....    ",
"              .....               ....               ....               ....               ....               .....    ",
"              .....               ....               ....               ....               ....               .....    ",
"              .....               ....               ....               ....               ....               .....    ",
"              .....               ....               ....               ....               ....               .....    ",
"              .....               ....               ....               ....               ....               .....    ",
"              .....               ....               ....               ....               ....               .....    ",
"              .....               ....               ....               ....               ....               .....    ",
"              .....               ....               ....               ....               ....               .....    ",
"              .....               ....               ....               ....               ....               .....    ",
"              .....               ....               ....               ....               ....               .....    ",
"              .....               ....               ....               ....               ....               .....    ",
"              .....               ....               ....               ....               ....               .....    ",
"              .....               ....               ....               ....               ....               .....    ",
"              .....               ....               ....               ....               ....               .....    ",
"              .....               ....               ....               ....               ....               .....    ",
"              .....               ....               ....               ....               ....               .....    ",
"              .....               ....               ....               ....               ....               .....    ",
"              .....               ....               ....               ....               ....               .....    ",
"              .....               ....               ....               ....               ....               .....    ",
"              .....               ....               ....               ....               ....               .....    ",
"              .....               ....               ....               ....               ....               .....    ",
"              .....               ....               ....               ....               ....               .....    ",
"              .....               ....               ....               ....               ....               .....    ",
"              .....               ....               ....               ....               ....               .....    ",
"              .....               ....               ....               ....               ....               .....    ",
"              .....               ....               ....               ....               ....               .....    ",
"..........    .....               ....               ....               ....               ....               .....    ",
"..........    .....               ....               ....               ....               ....               .....    ",
"..........    .....               ....               ....               ....               ....               .....    ",
"..........    .....               ....               ....               ....               ....               .....    ",
"..........    .....               ....               ....               ....               ....               .....    ",
"..........    .....................................................................................................    ",
"..........    .....................................................................................................    ",
"..........    .....................................................................................................    ",
"..........    .....................................................................................................    ",
"..........                                                                                                             ",
"..........                                                                                                             ",
"..........                                                                                                             ",
"..........                                                                                                             "
};
